<svg width="839" height="151" viewBox="0 0 839 151" fill="none" xmlns="http://www.w3.org/2000/svg">
<path d="M60.6572 149.138V50.2713H88.9969L89.9291 68.1455L86.0137 68.3317C87.5053 65.1044 89.3698 62.2495 91.6071 59.767C93.9687 57.2844 96.5789 55.2363 99.4378 53.6227C102.421 51.8849 105.466 50.5816 108.574 49.7127C111.805 48.8438 115.037 48.4094 118.269 48.4094C123.116 48.4094 127.529 49.1541 131.506 50.6436C135.484 52.1332 138.964 54.5536 141.947 57.9051C144.93 61.1323 147.292 65.5388 149.032 71.1245L144.371 70.7522L145.863 67.7731C147.478 64.7941 149.529 62.1254 152.015 59.767C154.625 57.2844 157.484 55.2363 160.592 53.6227C163.699 51.8849 166.931 50.5816 170.287 49.7127C173.643 48.8438 176.875 48.4094 179.982 48.4094C187.813 48.4094 194.338 49.961 199.559 53.0641C204.779 56.0432 208.695 60.5738 211.305 66.656C214.039 72.7382 215.407 80.1237 215.407 88.8126V149.138H185.389V91.233C185.389 87.261 184.83 83.9716 183.711 81.365C182.592 78.7583 180.914 76.8344 178.677 75.5931C176.564 74.2277 173.891 73.545 170.66 73.545C168.05 73.545 165.626 73.9794 163.388 74.8483C161.275 75.7172 159.411 76.8964 157.795 78.3859C156.303 79.8755 155.123 81.6132 154.253 83.5993C153.383 85.5853 152.947 87.8196 152.947 90.3021V149.138H122.93V91.0468C122.93 87.323 122.37 84.1578 121.252 81.5512C120.133 78.9445 118.455 76.9585 116.218 75.5931C113.98 74.2277 111.37 73.545 108.387 73.545C105.777 73.545 103.353 73.9794 101.116 74.8483C99.0027 75.7172 97.1383 76.8964 95.5224 78.3859C94.0309 79.8755 92.8501 81.6132 91.98 83.5993C91.1099 85.5853 90.6749 87.7575 90.6749 90.1159V149.138H60.6572Z" fill="#0231C8"/>
<path d="M240.001 149.138V50.2713H268.341L269.273 68.1455L265.358 68.3317C266.849 65.1044 268.714 62.2495 270.951 59.767C273.313 57.2844 275.923 55.2363 278.782 53.6227C281.765 51.8849 284.81 50.5816 287.918 49.7127C291.149 48.8438 294.381 48.4094 297.613 48.4094C302.46 48.4094 306.873 49.1541 310.85 50.6436C314.828 52.1332 318.308 54.5536 321.291 57.9051C324.274 61.1323 326.636 65.5388 328.376 71.1245L323.715 70.7522L325.207 67.7731C326.822 64.7941 328.873 62.1254 331.359 59.767C333.969 57.2844 336.828 55.2363 339.936 53.6227C343.043 51.8849 346.275 50.5816 349.631 49.7127C352.987 48.8438 356.219 48.4094 359.326 48.4094C367.157 48.4094 373.682 49.961 378.903 53.0641C384.123 56.0432 388.038 60.5738 390.649 66.656C393.383 72.7382 394.751 80.1237 394.751 88.8126V149.138H364.733V91.233C364.733 87.261 364.174 83.9716 363.055 81.365C361.936 78.7583 360.258 76.8344 358.021 75.5931C355.908 74.2277 353.235 73.545 350.004 73.545C347.393 73.545 344.97 73.9794 342.732 74.8483C340.619 75.7172 338.755 76.8964 337.139 78.3859C335.647 79.8755 334.467 81.6132 333.597 83.5993C332.726 85.5853 332.291 87.8196 332.291 90.3021V149.138H302.274V91.0468C302.274 87.323 301.715 84.1578 300.596 81.5512C299.477 78.9445 297.799 76.9585 295.562 75.5931C293.324 74.2277 290.714 73.545 287.731 73.545C285.121 73.545 282.697 73.9794 280.46 74.8483C278.347 75.7172 276.482 76.8964 274.866 78.3859C273.375 79.8755 272.194 81.6132 271.324 83.5993C270.454 85.5853 270.019 87.7575 270.019 90.1159V149.138H240.001Z" fill="#0231C8"/>
<path d="M466.702 151C455.764 151 446.255 148.828 438.176 144.483C430.097 140.015 423.82 133.995 419.345 126.423C414.871 118.727 412.633 109.976 412.633 100.17C412.633 92.5984 413.876 85.6473 416.362 79.3169C418.848 72.9864 422.328 67.5249 426.803 62.9322C431.278 58.2154 436.56 54.6157 442.651 52.1332C448.866 49.5265 455.64 48.2232 462.973 48.2232C469.934 48.2232 476.273 49.4644 481.991 51.947C487.833 54.4295 492.867 57.9051 497.093 62.3736C501.319 66.8422 504.551 72.1175 506.788 78.1997C509.025 84.2819 510.02 90.9227 509.771 98.1221L509.585 106.128H430.718L426.43 89.3711H485.347L482.177 92.9087V89.185C481.929 86.0818 480.934 83.351 479.194 80.9926C477.578 78.5101 475.403 76.5861 472.668 75.2207C469.934 73.8553 466.827 73.1726 463.346 73.1726C458.499 73.1726 454.335 74.1656 450.854 76.1517C447.498 78.0136 444.95 80.8064 443.21 84.5302C441.47 88.1299 440.6 92.5984 440.6 97.9359C440.6 103.397 441.719 108.176 443.956 112.272C446.318 116.245 449.674 119.348 454.024 121.582C458.499 123.816 463.781 124.933 469.872 124.933C474.098 124.933 477.827 124.313 481.058 123.072C484.414 121.83 488.019 119.72 491.872 116.741L505.856 136.477C502.002 139.829 497.901 142.559 493.55 144.67C489.2 146.78 484.725 148.331 480.126 149.324C475.652 150.441 471.177 151 466.702 151Z" fill="#0231C8"/>
<path d="M528.777 149.138V50.2713H557.116L558.049 70.3798L552.082 72.614C553.45 68.1455 555.873 64.1114 559.354 60.5117C562.958 56.7879 567.247 53.8089 572.218 51.5746C577.19 49.3403 582.411 48.2232 587.88 48.2232C595.338 48.2232 601.615 49.7748 606.711 52.8779C611.807 55.857 615.66 60.3876 618.27 66.4698C620.88 72.4279 622.186 79.7513 622.186 88.4402V149.138H592.168V90.8606C592.168 86.8886 591.609 83.5992 590.49 80.9926C589.371 78.3859 587.631 76.462 585.27 75.2207C583.032 73.8553 580.236 73.2347 576.88 73.3588C574.269 73.3588 571.846 73.7933 569.608 74.6621C567.371 75.4069 565.444 76.5861 563.828 78.1997C562.213 79.6893 560.907 81.427 559.913 83.4131C559.043 85.3991 558.608 87.5713 558.608 89.9297V149.138H543.879C540.398 149.138 537.415 149.138 534.929 149.138C532.443 149.138 530.393 149.138 528.777 149.138Z" fill="#0231C8"/>
<path d="M690.567 151C680.996 151 672.42 148.766 664.838 144.297C657.256 139.829 651.227 133.746 646.753 126.051C642.402 118.231 640.227 109.418 640.227 99.6116C640.227 89.8056 642.402 81.0547 646.753 73.3588C651.227 65.5388 657.256 59.3946 664.838 54.926C672.42 50.4575 680.996 48.2232 690.567 48.2232C699.392 48.2232 707.472 49.7748 714.805 52.8779C722.263 55.9811 728.167 60.3255 732.517 65.9112L716.297 85.275C714.556 83.2889 712.506 81.427 710.144 79.6893C707.782 77.9515 705.172 76.5861 702.313 75.5931C699.454 74.6001 696.471 74.1036 693.364 74.1036C688.641 74.1036 684.477 75.2207 680.872 77.455C677.267 79.5651 674.471 82.5442 672.482 86.3921C670.493 90.24 669.499 94.6465 669.499 99.6116C669.499 104.328 670.493 108.611 672.482 112.459C674.595 116.307 677.454 119.348 681.059 121.582C684.663 123.816 688.765 124.933 693.364 124.933C696.596 124.933 699.579 124.561 702.313 123.816C705.048 122.947 707.534 121.706 709.771 120.092C712.133 118.479 714.308 116.493 716.297 114.134L732.331 133.684C728.105 139.022 722.201 143.242 714.619 146.345C707.161 149.448 699.144 151 690.567 151Z" fill="#0231C8"/>
<path d="M795.894 151C784.956 151 775.447 148.828 767.368 144.483C759.289 140.015 753.012 133.995 748.537 126.423C744.062 118.727 741.825 109.976 741.825 100.17C741.825 92.5984 743.068 85.6473 745.554 79.3169C748.04 72.9864 751.52 67.5249 755.995 62.9322C760.469 58.2154 765.752 54.6157 771.843 52.1332C778.057 49.5265 784.832 48.2232 792.165 48.2232C799.126 48.2232 805.465 49.4644 811.182 51.947C817.024 54.4295 822.058 57.9051 826.285 62.3736C830.511 66.8422 833.742 72.1175 835.98 78.1997C838.217 84.2819 839.211 90.9227 838.963 98.1221L838.776 106.128H759.91L755.622 89.3711H814.539L811.369 92.9087V89.185C811.12 86.0818 810.126 83.351 808.386 80.9926C806.77 78.5101 804.595 76.5861 801.86 75.2207C799.126 73.8553 796.018 73.1726 792.538 73.1726C787.69 73.1726 783.526 74.1656 780.046 76.1517C776.69 78.0136 774.142 80.8064 772.402 84.5302C770.662 88.1299 769.792 92.5984 769.792 97.9359C769.792 103.397 770.91 108.176 773.148 112.272C775.509 116.245 778.865 119.348 783.216 121.582C787.69 123.816 792.973 124.933 799.064 124.933C803.29 124.933 807.019 124.313 810.25 123.072C813.606 121.83 817.211 119.72 821.064 116.741L835.047 136.477C831.194 139.829 827.092 142.559 822.742 144.67C818.392 146.78 813.917 148.331 809.318 149.324C804.843 150.441 800.369 151 795.894 151Z" fill="#0231C8"/>
<path fill-rule="evenodd" clip-rule="evenodd" d="M2.98312 50.2713V149.138H32.8143V50.2713H2.98312Z" fill="#0231C8"/>
<path d="M17.8987 30.7213C12.3054 30.7213 7.89283 29.418 4.66112 26.8113C1.55371 24.0806 0 20.2326 0 15.2676C0 10.799 1.61586 7.13728 4.84757 4.28237C8.07928 1.42745 12.4297 0 17.8987 0C23.4921 0 27.8424 1.36539 30.9499 4.09618C34.0573 6.70284 35.611 10.4266 35.611 15.2676C35.611 19.8603 33.9951 23.584 30.7634 26.439C27.656 29.2939 23.3678 30.7213 17.8987 30.7213Z" fill="#0231C8"/>
</svg>
